<?xml version="1.0" encoding="UTF-8"?>
<svg xmlns="http://www.w3.org/2000/svg" class="plot-d6a7b5" fill="currentColor" font-family="system-ui, sans-serif" font-size="10" text-anchor="middle" width="680" height="360" viewBox="0 0 680 360" style="font-family: system-ui, sans-serif; background: transparent; color: rgb(61, 72, 82);"><style>:where(.plot-d6a7b5) {
  --plot-background: white;
  display: block;
  height: auto;
  height: intrinsic;
  max-width: 100%;
}
:where(.plot-d6a7b5 text),
:where(.plot-d6a7b5 tspan) {
  white-space: pre;
}</style><g aria-label="fx-axis tick label" transform="translate(0,-9)"><g transform="translate(0,0)"><text transform="translate(186.5,40)">Mean</text></g><g transform="translate(341,0)"><text transform="translate(186.5,40)">Median</text></g></g><g aria-label="y-grid" aria-hidden="true"><g stroke="currentColor" stroke-opacity="0.1" transform="translate(0,0)"><line x1="50" x2="323" y1="324" y2="324"></line><line x1="50" x2="323" y1="291.34130634774607" y2="291.34130634774607"></line><line x1="50" x2="323" y1="258.68261269549214" y2="258.68261269549214"></line><line x1="50" x2="323" y1="226.02391904323827" y2="226.02391904323827"></line><line x1="50" x2="323" y1="193.36522539098434" y2="193.36522539098434"></line><line x1="50" x2="323" y1="160.7065317387304" y2="160.7065317387304"></line><line x1="50" x2="323" y1="128.04783808647653" y2="128.04783808647653"></line><line x1="50" x2="323" y1="95.38914443422262" y2="95.38914443422262"></line><line x1="50" x2="323" y1="62.7304507819687" y2="62.7304507819687"></line></g><g stroke="currentColor" stroke-opacity="0.1" transform="translate(341,0)"><line x1="50" x2="323" y1="324" y2="324"></line><line x1="50" x2="323" y1="291.34130634774607" y2="291.34130634774607"></line><line x1="50" x2="323" y1="258.68261269549214" y2="258.68261269549214"></line><line x1="50" x2="323" y1="226.02391904323827" y2="226.02391904323827"></line><line x1="50" x2="323" y1="193.36522539098434" y2="193.36522539098434"></line><line x1="50" x2="323" y1="160.7065317387304" y2="160.7065317387304"></line><line x1="50" x2="323" y1="128.04783808647653" y2="128.04783808647653"></line><line x1="50" x2="323" y1="95.38914443422262" y2="95.38914443422262"></line><line x1="50" x2="323" y1="62.7304507819687" y2="62.7304507819687"></line></g></g><g aria-label="y-axis tick" aria-hidden="true"><g fill="none" stroke="currentColor" transform="translate(0,0)"><path transform="translate(50,324)" d="M0,0L-6,0"></path><path transform="translate(50,291.34130634774607)" d="M0,0L-6,0"></path><path transform="translate(50,258.68261269549214)" d="M0,0L-6,0"></path><path transform="translate(50,226.02391904323827)" d="M0,0L-6,0"></path><path transform="translate(50,193.36522539098434)" d="M0,0L-6,0"></path><path transform="translate(50,160.7065317387304)" d="M0,0L-6,0"></path><path transform="translate(50,128.04783808647653)" d="M0,0L-6,0"></path><path transform="translate(50,95.38914443422262)" d="M0,0L-6,0"></path><path transform="translate(50,62.7304507819687)" d="M0,0L-6,0"></path></g></g><g aria-label="y-axis tick label" transform="translate(-9,0)"><g text-anchor="end" font-variant="tabular-nums" transform="translate(0,0)"><text y="0.32em" transform="translate(50,324)">0</text><text y="0.32em" transform="translate(50,291.34130634774607)">5</text><text y="0.32em" transform="translate(50,258.68261269549214)">10</text><text y="0.32em" transform="translate(50,226.02391904323827)">15</text><text y="0.32em" transform="translate(50,193.36522539098434)">20</text><text y="0.32em" transform="translate(50,160.7065317387304)">25</text><text y="0.32em" transform="translate(50,128.04783808647653)">30</text><text y="0.32em" transform="translate(50,95.38914443422262)">35</text><text y="0.32em" transform="translate(50,62.7304507819687)">40</text></g></g><g aria-label="y-axis label" text-anchor="start" transform="translate(-47,-37)"><text y="0.71em" transform="translate(50,40)">↑ Engagement</text></g><g aria-label="x-axis tick" aria-hidden="true" transform="translate(39.5,0)"><g fill="none" stroke="currentColor" transform="translate(0,0)"><path transform="translate(59,324)" d="M0,0L0,6"></path><path transform="translate(147,324)" d="M0,0L0,6"></path><path transform="translate(235,324)" d="M0,0L0,6"></path></g><g fill="none" stroke="currentColor" transform="translate(341,0)"><path transform="translate(59,324)" d="M0,0L0,6"></path><path transform="translate(147,324)" d="M0,0L0,6"></path><path transform="translate(235,324)" d="M0,0L0,6"></path></g></g><g aria-label="x-axis tick label" transform="translate(39.5,9)"><g transform="translate(0,0)"><text y="0.71em" transform="translate(59,324)">Human</text><text y="0.71em" transform="translate(147,324)">Aggregator</text><text y="0.71em" transform="translate(235,324)">Bot</text></g><g transform="translate(341,0)"><text y="0.71em" transform="translate(59,324)">Human</text><text y="0.71em" transform="translate(147,324)">Aggregator</text><text y="0.71em" transform="translate(235,324)">Bot</text></g></g><g aria-label="bar"><g transform="translate(0,0)"><rect x="59" width="79" y="40" height="284" rx="2" fill="#4a7fa5"></rect><rect x="147" width="79" y="157.1140754369825" height="166.8859245630175" rx="2" fill="#6a9e8e"></rect><rect x="235" width="79" y="274.42410303587855" height="49.575896964121455" rx="2" fill="#c5614a"></rect></g><g transform="translate(341,0)"><rect x="59" width="79" y="180.3017479300828" height="143.6982520699172" rx="2" fill="#4a7fa5"></rect><rect x="147" width="79" y="193.36522539098434" height="130.63477460901566" rx="2" fill="#6a9e8e"></rect><rect x="235" width="79" y="291.34130634774607" height="32.65869365225393" rx="2" fill="#c5614a"></rect></g></g><g aria-label="text" transform="translate(39.5,-10)"><g fill="#3d4852" font-size="13" font-weight="bold" transform="translate(0,0)"><text y="0.32em" transform="translate(59,40)">43.5</text><text y="0.32em" transform="translate(147,157.1140754369825)">25.6</text><text y="0.32em" transform="translate(235,274.42410303587855)">7.6</text></g><g fill="#3d4852" font-size="13" font-weight="bold" transform="translate(341,0)"><text y="0.32em" transform="translate(59,180.3017479300828)">22</text><text y="0.32em" transform="translate(147,193.36522539098434)">20</text><text y="0.32em" transform="translate(235,291.34130634774607)">5</text></g></g><g aria-label="rule"><g stroke="currentColor" transform="translate(0,0)"><line x1="50" x2="323" y1="324" y2="324"></line></g><g stroke="currentColor" transform="translate(341,0)"><line x1="50" x2="323" y1="324" y2="324"></line></g></g></svg>