<?xml version="1.0" encoding="UTF-8"?>
<svg xmlns="http://www.w3.org/2000/svg" class="plot-d6a7b5" fill="currentColor" font-family="system-ui, sans-serif" font-size="10" text-anchor="middle" width="680" height="340" viewBox="0 0 680 340" style="font-family: system-ui, sans-serif; background: transparent; color: rgb(61, 72, 82);"><style>:where(.plot-d6a7b5) {
  --plot-background: white;
  display: block;
  height: auto;
  height: intrinsic;
  max-width: 100%;
}
:where(.plot-d6a7b5 text),
:where(.plot-d6a7b5 tspan) {
  white-space: pre;
}</style><g aria-label="y-grid" aria-hidden="true" stroke="currentColor" stroke-opacity="0.1"><line x1="50" x2="664" y1="304" y2="304"></line><line x1="50" x2="664" y1="264.3603603603604" y2="264.3603603603604"></line><line x1="50" x2="664" y1="224.72072072072072" y2="224.72072072072072"></line><line x1="50" x2="664" y1="185.08108108108107" y2="185.08108108108107"></line><line x1="50" x2="664" y1="145.44144144144144" y2="145.44144144144144"></line><line x1="50" x2="664" y1="105.80180180180177" y2="105.80180180180177"></line><line x1="50" x2="664" y1="66.16216216216215" y2="66.16216216216215"></line><line x1="50" x2="664" y1="26.522522522522493" y2="26.522522522522493"></line></g><g aria-label="y-axis tick" aria-hidden="true" fill="none" stroke="currentColor"><path transform="translate(50,304)" d="M0,0L-6,0"></path><path transform="translate(50,264.3603603603604)" d="M0,0L-6,0"></path><path transform="translate(50,224.72072072072072)" d="M0,0L-6,0"></path><path transform="translate(50,185.08108108108107)" d="M0,0L-6,0"></path><path transform="translate(50,145.44144144144144)" d="M0,0L-6,0"></path><path transform="translate(50,105.80180180180177)" d="M0,0L-6,0"></path><path transform="translate(50,66.16216216216215)" d="M0,0L-6,0"></path><path transform="translate(50,26.522522522522493)" d="M0,0L-6,0"></path></g><g aria-label="y-axis tick label" text-anchor="end" font-variant="tabular-nums" transform="translate(-9,0)"><text y="0.32em" transform="translate(50,304)">0</text><text y="0.32em" transform="translate(50,264.3603603603604)">100</text><text y="0.32em" transform="translate(50,224.72072072072072)">200</text><text y="0.32em" transform="translate(50,185.08108108108107)">300</text><text y="0.32em" transform="translate(50,145.44144144144144)">400</text><text y="0.32em" transform="translate(50,105.80180180180177)">500</text><text y="0.32em" transform="translate(50,66.16216216216215)">600</text><text y="0.32em" transform="translate(50,26.522522522522493)">700</text></g><g aria-label="y-axis label" text-anchor="start" transform="translate(-47,-13)"><text y="0.71em" transform="translate(50,16)">↑ Mean posts / hour</text></g><g aria-label="x-axis tick" aria-hidden="true" fill="none" stroke="currentColor" transform="translate(11.5,0)"><path transform="translate(58,304)" d="M0,0L0,6"></path><path transform="translate(133,304)" d="M0,0L0,6"></path><path transform="translate(208,304)" d="M0,0L0,6"></path><path transform="translate(283,304)" d="M0,0L0,6"></path><path transform="translate(358,304)" d="M0,0L0,6"></path><path transform="translate(433,304)" d="M0,0L0,6"></path><path transform="translate(508,304)" d="M0,0L0,6"></path><path transform="translate(583,304)" d="M0,0L0,6"></path></g><g aria-label="x-axis tick label" transform="translate(11.5,9)"><text y="0.71em" transform="translate(58,304)">00:00</text><text y="0.71em" transform="translate(133,304)">03:00</text><text y="0.71em" transform="translate(208,304)">06:00</text><text y="0.71em" transform="translate(283,304)">09:00</text><text y="0.71em" transform="translate(358,304)">12:00</text><text y="0.71em" transform="translate(433,304)">15:00</text><text y="0.71em" transform="translate(508,304)">18:00</text><text y="0.71em" transform="translate(583,304)">21:00</text></g><g aria-label="x-axis label" transform="translate(0,33)"><text transform="translate(357,304)">Hour (UTC)</text></g><g aria-label="rule" stroke="currentColor"><line x1="50" x2="664" y1="304" y2="304"></line></g><g aria-label="bar"><rect x="58" width="23" y="266.0900900900901" height="37.90990990990991" rx="2" fill="#4a7fa5"></rect><rect x="83" width="23" y="264.7567567567568" height="39.24324324324323" rx="2" fill="#4a7fa5"></rect><rect x="108" width="23" y="256.0720720720721" height="47.9279279279279" rx="2" fill="#4a7fa5"></rect><rect x="133" width="23" y="255.13513513513513" height="48.86486486486487" rx="2" fill="#4a7fa5"></rect><rect x="158" width="23" y="209.87387387387386" height="94.12612612612614" rx="2" fill="#4a7fa5"></rect><rect x="183" width="23" y="261.5855855855856" height="42.41441441441441" rx="2" fill="#4a7fa5"></rect><rect x="208" width="23" y="16" height="288" rx="2" fill="#c5614a"></rect><rect x="233" width="23" y="268.2162162162162" height="35.783783783783804" rx="2" fill="#4a7fa5"></rect><rect x="258" width="23" y="252.76576576576576" height="51.234234234234236" rx="2" fill="#4a7fa5"></rect><rect x="283" width="23" y="245.87387387387386" height="58.12612612612614" rx="2" fill="#4a7fa5"></rect><rect x="308" width="23" y="241.11711711711712" height="62.88288288288288" rx="2" fill="#4a7fa5"></rect><rect x="333" width="23" y="238.66666666666666" height="65.33333333333334" rx="2" fill="#4a7fa5"></rect><rect x="358" width="23" y="232.64864864864865" height="71.35135135135135" rx="2" fill="#4a7fa5"></rect><rect x="383" width="23" y="218.95495495495496" height="85.04504504504504" rx="2" fill="#4a7fa5"></rect><rect x="408" width="23" y="222.0900900900901" height="81.90990990990991" rx="2" fill="#4a7fa5"></rect><rect x="433" width="23" y="218.4144144144144" height="85.58558558558559" rx="2" fill="#4a7fa5"></rect><rect x="458" width="23" y="219.56756756756758" height="84.43243243243242" rx="2" fill="#4a7fa5"></rect><rect x="483" width="23" y="225.6936936936937" height="78.30630630630631" rx="2" fill="#4a7fa5"></rect><rect x="508" width="23" y="236.54054054054052" height="67.45945945945948" rx="2" fill="#4a7fa5"></rect><rect x="533" width="23" y="237.04204204204203" height="66.95795795795797" rx="2" fill="#4a7fa5"></rect><rect x="558" width="23" y="238.16516516516515" height="65.83483483483485" rx="2" fill="#4a7fa5"></rect><rect x="583" width="23" y="247.3153153153153" height="56.6846846846847" rx="2" fill="#4a7fa5"></rect><rect x="608" width="23" y="250.7177177177177" height="53.282282282282296" rx="2" fill="#4a7fa5"></rect><rect x="633" width="23" y="254.05405405405406" height="49.94594594594594" rx="2" fill="#4a7fa5"></rect></g><g aria-label="text" fill="#c5614a" font-size="13" font-weight="bold" transform="translate(11.5,-10)"><text y="0.32em" transform="translate(208,16)">727</text></g></svg>