<?xml version="1.0" encoding="UTF-8"?>
<svg xmlns="http://www.w3.org/2000/svg" class="plot-d6a7b5" fill="currentColor" font-family="system-ui, sans-serif" font-size="10" text-anchor="middle" width="680" height="320" viewBox="0 0 680 320" style="font-family: system-ui, sans-serif; background: transparent; color: rgb(61, 72, 82);"><style>:where(.plot-d6a7b5) {
  --plot-background: white;
  display: block;
  height: auto;
  height: intrinsic;
  max-width: 100%;
}
:where(.plot-d6a7b5 text),
:where(.plot-d6a7b5 tspan) {
  white-space: pre;
}</style><g aria-label="y-axis tick" aria-hidden="true" fill="none" stroke="currentColor" transform="translate(0,15.5)"><path transform="translate(72,17)" d="M0,0L-6,0"></path><path transform="translate(72,51)" d="M0,0L-6,0"></path><path transform="translate(72,85)" d="M0,0L-6,0"></path><path transform="translate(72,119)" d="M0,0L-6,0"></path><path transform="translate(72,153)" d="M0,0L-6,0"></path><path transform="translate(72,187)" d="M0,0L-6,0"></path><path transform="translate(72,221)" d="M0,0L-6,0"></path><path transform="translate(72,255)" d="M0,0L-6,0"></path></g><g aria-label="y-axis tick label" text-anchor="end" transform="translate(-9,15.5)"><text y="0.32em" transform="translate(72,17)">arxiv</text><text y="0.32em" transform="translate(72,51)">other</text><text y="0.32em" transform="translate(72,85)">others</text><text y="0.32em" transform="translate(72,119)">biorxiv</text><text y="0.32em" transform="translate(72,153)">doi</text><text y="0.32em" transform="translate(72,187)">nature</text><text y="0.32em" transform="translate(72,221)">pubmed</text><text y="0.32em" transform="translate(72,255)">elsevier</text></g><g aria-label="x-grid" aria-hidden="true" stroke="currentColor" stroke-opacity="0.1"><line x1="72" x2="72" y1="12" y2="290"></line><line x1="172.13638647620414" x2="172.13638647620414" y1="12" y2="290"></line><line x1="272.2727729524083" x2="272.2727729524083" y1="12" y2="290"></line><line x1="372.4091594286125" x2="372.4091594286125" y1="12" y2="290"></line><line x1="472.54554590481655" x2="472.54554590481655" y1="12" y2="290"></line><line x1="572.6819323810207" x2="572.6819323810207" y1="12" y2="290"></line></g><g aria-label="x-axis tick" aria-hidden="true" fill="none" stroke="currentColor"><path transform="translate(72,290)" d="M0,0L0,6"></path><path transform="translate(172.13638647620414,290)" d="M0,0L0,6"></path><path transform="translate(272.2727729524083,290)" d="M0,0L0,6"></path><path transform="translate(372.4091594286125,290)" d="M0,0L0,6"></path><path transform="translate(472.54554590481655,290)" d="M0,0L0,6"></path><path transform="translate(572.6819323810207,290)" d="M0,0L0,6"></path></g><g aria-label="x-axis tick label" font-variant="tabular-nums" transform="translate(0,9)"><text y="0.71em" transform="translate(72,290)">0</text><text y="0.71em" transform="translate(172.13638647620414,290)">10k</text><text y="0.71em" transform="translate(272.2727729524083,290)">20k</text><text y="0.71em" transform="translate(372.4091594286125,290)">30k</text><text y="0.71em" transform="translate(472.54554590481655,290)">40k</text><text y="0.71em" transform="translate(572.6819323810207,290)">50k</text></g><g aria-label="x-axis label" text-anchor="end" transform="translate(47,27)"><text transform="translate(630,290)">Posts shared →</text></g><g aria-label="bar" fill="#4a7fa5"><rect x="72" width="558" y="17" height="31" rx="2"></rect><rect x="72" width="204.0178738066183" y="51" height="31" rx="2"></rect><rect x="72" width="71.44731175077166" y="119" height="31" rx="2"></rect><rect x="72" width="58.8201134161223" y="153" height="31" rx="2"></rect><rect x="72" width="39.163340750843446" y="187" height="31" rx="2"></rect><rect x="72" width="27.647656306079966" y="221" height="31" rx="2"></rect><rect x="72" width="14.52978967769721" y="255" height="31" rx="2"></rect><rect x="72" width="81.71129136458259" y="85" height="31" rx="2"></rect></g><g aria-label="text" fill="#3d4852" text-anchor="start" font-size="12" font-weight="600" transform="translate(4,15.5)"><text y="0.32em" transform="translate(630,17)">52.9%</text><text y="0.32em" transform="translate(276.0178738066183,51)">19.3%</text><text y="0.32em" transform="translate(143.44731175077166,119)">6.8%</text><text y="0.32em" transform="translate(130.8201134161223,153)">5.6%</text><text y="0.32em" transform="translate(111.16334075084345,187)">3.7%</text><text y="0.32em" transform="translate(99.64765630607997,221)">2.6%</text><text y="0.32em" transform="translate(86.52978967769721,255)">1.4%</text><text y="0.32em" transform="translate(153.7112913645826,85)">7.7%</text></g></svg>