<?xml version="1.0" encoding="UTF-8"?>
<svg xmlns="http://www.w3.org/2000/svg" class="plot-d6a7b5" fill="currentColor" font-family="system-ui, sans-serif" font-size="10" text-anchor="middle" width="680" height="440" viewBox="0 0 680 440" style="font-family: system-ui, sans-serif; background: transparent; color: rgb(61, 72, 82);"><style>:where(.plot-d6a7b5) {
  --plot-background: white;
  display: block;
  height: auto;
  height: intrinsic;
  max-width: 100%;
}
:where(.plot-d6a7b5 text),
:where(.plot-d6a7b5 tspan) {
  white-space: pre;
}</style><g aria-label="y-axis tick" aria-hidden="true" fill="none" stroke="currentColor" transform="translate(0,16.5)"><path transform="translate(290,37)" d="M0,0L-6,0"></path><path transform="translate(290,74)" d="M0,0L-6,0"></path><path transform="translate(290,111)" d="M0,0L-6,0"></path><path transform="translate(290,148)" d="M0,0L-6,0"></path><path transform="translate(290,185)" d="M0,0L-6,0"></path><path transform="translate(290,222)" d="M0,0L-6,0"></path><path transform="translate(290,259)" d="M0,0L-6,0"></path><path transform="translate(290,296)" d="M0,0L-6,0"></path><path transform="translate(290,333)" d="M0,0L-6,0"></path><path transform="translate(290,370)" d="M0,0L-6,0"></path></g><g aria-label="y-axis tick label" text-anchor="end" transform="translate(-9,16.5)"><text y="0.32em" transform="translate(290,37)">Swapping old immune cells in the brain with fre…</text><text y="0.32em" transform="translate(290,74)">Sensitization of tumours to immunotherapy by bo…</text><text y="0.32em" transform="translate(290,111)">Tiny robots swim through blood, deliver drugs —…</text><text y="0.32em" transform="translate(290,148)">mRNA 3′UTRs chaperone intrinsically disordered…</text><text y="0.32em" transform="translate(290,185)">In Nature Human Behaviour, Peter Gleick calls o…</text><text y="0.32em" transform="translate(290,222)">Single antivenom protects against 17 different…</text><text y="0.32em" transform="translate(290,259)">A new jump forward in cancer immunotherapy bloc…</text><text y="0.32em" transform="translate(290,296)">We mapped the whole human fallopian tube in 3D…</text><text y="0.32em" transform="translate(290,333)">Discovering Glycosylation-Dependent Protein Fun…</text><text y="0.32em" transform="translate(290,370)">Ten species comprise half of the bacteriology l…</text></g><g aria-label="x-grid" aria-hidden="true" stroke="currentColor" stroke-opacity="0.1"><line x1="290" x2="290" y1="30" y2="410"></line><line x1="370.8909730363423" x2="370.8909730363423" y1="30" y2="410"></line><line x1="451.7819460726846" x2="451.7819460726846" y1="30" y2="410"></line><line x1="532.6729191090269" x2="532.6729191090269" y1="30" y2="410"></line><line x1="613.5638921453692" x2="613.5638921453692" y1="30" y2="410"></line></g><g aria-label="x-axis tick" aria-hidden="true" fill="none" stroke="currentColor"><path transform="translate(290,410)" d="M0,0L0,6"></path><path transform="translate(370.8909730363423,410)" d="M0,0L0,6"></path><path transform="translate(451.7819460726846,410)" d="M0,0L0,6"></path><path transform="translate(532.6729191090269,410)" d="M0,0L0,6"></path><path transform="translate(613.5638921453692,410)" d="M0,0L0,6"></path></g><g aria-label="x-axis tick label" font-variant="tabular-nums" transform="translate(0,9)"><text y="0.71em" transform="translate(290,410)">0</text><text y="0.71em" transform="translate(370.8909730363423,410)">200</text><text y="0.71em" transform="translate(451.7819460726846,410)">400</text><text y="0.71em" transform="translate(532.6729191090269,410)">600</text><text y="0.71em" transform="translate(613.5638921453692,410)">800</text></g><g aria-label="x-axis label" text-anchor="end" transform="translate(42,27)"><text transform="translate(635,410)">Total engagement →</text></g><g aria-label="bar"><rect x="290" width="265.7268464243846" y="37" height="33" rx="2" fill="#4a7fa5"></rect><rect x="555.7268464243846" width="70.77960140679954" y="37" height="33" rx="2" fill="#d4924b"></rect><rect x="626.5064478311841" width="5.257913247362126" y="37" height="33" rx="2" fill="#c5614a"></rect><rect x="631.7643610785462" width="3.2356389214537558" y="37" height="33" rx="2" fill="#6a9e8e"></rect><rect x="290" width="98.68698710433762" y="111" height="33" rx="2" fill="#4a7fa5"></rect><rect x="388.6869871043376" width="18.200468933177035" y="111" height="33" rx="2" fill="#d4924b"></rect><rect x="406.88745603751465" width="14.155920281359897" y="111" height="33" rx="2" fill="#c5614a"></rect><rect x="421.04337631887455" width="4.449003516998857" y="111" height="33" rx="2" fill="#6a9e8e"></rect><rect x="290" width="100.3048065650645" y="74" height="33" rx="2" fill="#4a7fa5"></rect><rect x="390.3048065650645" width="33.165298944900314" y="74" height="33" rx="2" fill="#d4924b"></rect><rect x="423.4701055099648" width="1.2133645955451584" y="74" height="33" rx="2" fill="#c5614a"></rect><rect x="424.68347010550997" width="0.40445486518171947" y="74" height="33" rx="2" fill="#6a9e8e"></rect><rect x="290" width="63.903868698710426" y="148" height="33" rx="2" fill="#4a7fa5"></rect><rect x="353.9038686987104" width="26.694021101992973" y="148" height="33" rx="2" fill="#d4924b"></rect><rect x="380.5978898007034" width="1.617819460726821" y="148" height="33" rx="2" fill="#c5614a"></rect><rect x="382.2157092614302" width="2.0222743259085973" y="148" height="33" rx="2" fill="#6a9e8e"></rect><rect x="290" width="54.19695193434933" y="185" height="33" rx="2" fill="#4a7fa5"></rect><rect x="344.19695193434933" width="21.436107854630734" y="185" height="33" rx="2" fill="#d4924b"></rect><rect x="365.63305978898006" width="1.2133645955451584" y="185" height="33" rx="2" fill="#c5614a"></rect><rect x="366.8464243845252" width="0" y="185" height="33" rx="2" fill="#6a9e8e"></rect><rect x="290" width="57.43259085580303" y="222" height="33" rx="2" fill="#4a7fa5"></rect><rect x="347.432590855803" width="9.706916764361097" y="222" height="33" rx="2" fill="#d4924b"></rect><rect x="357.1395076201641" width="0.40445486518171947" y="222" height="33" rx="2" fill="#c5614a"></rect><rect x="357.54396248534584" width="0.8089097303634389" y="222" height="33" rx="2" fill="#6a9e8e"></rect><rect x="290" width="46.91676436107855" y="259" height="33" rx="2" fill="#4a7fa5"></rect><rect x="336.91676436107855" width="12.133645955451357" y="259" height="33" rx="2" fill="#d4924b"></rect><rect x="349.0504103165299" width="0.40445486518171947" y="259" height="33" rx="2" fill="#c5614a"></rect><rect x="349.4548651817116" width="0.40445486518171947" y="259" height="33" rx="2" fill="#6a9e8e"></rect><rect x="290" width="23.053927315357555" y="370" height="33" rx="2" fill="#4a7fa5"></rect><rect x="313.05392731535756" width="16.178194607268438" y="370" height="33" rx="2" fill="#d4924b"></rect><rect x="329.232121922626" width="1.6178194607268779" y="370" height="33" rx="2" fill="#c5614a"></rect><rect x="330.84994138335287" width="4.85345838218052" y="370" height="33" rx="2" fill="#6a9e8e"></rect><rect x="290" width="38.01875732708089" y="296" height="33" rx="2" fill="#4a7fa5"></rect><rect x="328.0187573270809" width="10.111371629542816" y="296" height="33" rx="2" fill="#d4924b"></rect><rect x="338.1301289566237" width="2.8311840562719226" y="296" height="33" rx="2" fill="#c5614a"></rect><rect x="340.96131301289563" width="0.40445486518171947" y="296" height="33" rx="2" fill="#6a9e8e"></rect><rect x="290" width="36.40093786635407" y="333" height="33" rx="2" fill="#4a7fa5"></rect><rect x="326.40093786635407" width="10.515826494724479" y="333" height="33" rx="2" fill="#d4924b"></rect><rect x="336.91676436107855" width="0.40445486518171947" y="333" height="33" rx="2" fill="#c5614a"></rect><rect x="337.32121922626027" width="1.2133645955451584" y="333" height="33" rx="2" fill="#6a9e8e"></rect></g><g aria-label="text" fill="#6b7280" text-anchor="start" font-size="11" transform="translate(4,16.5)"><text y="0.32em" transform="translate(635,37)">853</text><text y="0.32em" transform="translate(425.4923798358734,111)">335</text><text y="0.32em" transform="translate(425.0879249706917,74)">334</text><text y="0.32em" transform="translate(384.2379835873388,148)">233</text><text y="0.32em" transform="translate(366.8464243845252,185)">190</text><text y="0.32em" transform="translate(358.3528722157093,222)">169</text><text y="0.32em" transform="translate(349.85932004689334,259)">148</text><text y="0.32em" transform="translate(335.7033997655334,370)">113</text><text y="0.32em" transform="translate(341.36576787807735,296)">127</text><text y="0.32em" transform="translate(338.5345838218054,333)">120</text></g><g>
<rect x="300" y="6" width="12" height="12" rx="2" fill="#4a7fa5"/><text x="316" y="16" text-anchor="start" font-size="12" font-family="system-ui, sans-serif" fill="#3d4852">Likes</text>
<rect x="395" y="6" width="12" height="12" rx="2" fill="#d4924b"/><text x="411" y="16" text-anchor="start" font-size="12" font-family="system-ui, sans-serif" fill="#3d4852">Reposts</text>
<rect x="490" y="6" width="12" height="12" rx="2" fill="#c5614a"/><text x="506" y="16" text-anchor="start" font-size="12" font-family="system-ui, sans-serif" fill="#3d4852">Replies</text>
<rect x="585" y="6" width="12" height="12" rx="2" fill="#6a9e8e"/><text x="601" y="16" text-anchor="start" font-size="12" font-family="system-ui, sans-serif" fill="#3d4852">Quotes</text>
</g>
</svg>